<?xml version="1.0" standalone="no"?>
<!DOCTYPE svg PUBLIC "-//W3C//DTD SVG 20010904//EN"
 "http://www.w3.org/TR/2001/REC-SVG-20010904/DTD/svg10.dtd">
<svg version="1.0" xmlns="http://www.w3.org/2000/svg"
 width="310.000000pt" height="310.000000pt" viewBox="0 0 310.000000 310.000000"
 preserveAspectRatio="xMidYMid meet">
<metadata>
Created by potrace 1.11, written by Peter Selinger 2001-2013
</metadata>
<g transform="translate(0.000000,310.000000) scale(0.100000,-0.100000)"
fill="#000000" stroke="none">
<path d="M817 3084 c-421 -65 -738 -386 -802 -810 -22 -145 -22 -1303 0 -1448
65 -429 382 -746 811 -811 145 -22 1303 -22 1448 0 429 65 746 382 811 811 22
145 22 1303 0 1448 -65 429 -382 746 -811 811 -138 21 -1323 20 -1457 -1z
m953 -320 c429 -76 794 -385 944 -802 91 -253 91 -571 0 -824 -126 -349 -403
-626 -752 -752 -253 -91 -571 -91 -824 0 -494 178 -819 638 -819 1159 -1 203
33 357 115 531 240 507 780 785 1336 688z"/>
<path d="M1350 2575 c-418 -84 -746 -415 -826 -833 -18 -95 -18 -289 0 -384
53 -276 215 -521 446 -672 182 -120 320 -165 533 -173 155 -6 248 5 366 44 96
32 254 113 306 158 l40 34 -62 1 -63 0 0 80 c0 44 -2 80 -5 80 -3 0 -26 -16
-52 -37 -66 -50 -192 -109 -288 -133 -103 -27 -278 -29 -384 -5 -319 73 -573
332 -637 648 -23 111 -15 304 16 402 78 249 289 468 529 550 210 71 449 56
644 -41 40 -20 93 -52 120 -70 26 -19 49 -34 52 -34 3 0 5 36 5 80 l0 80 67 0
67 0 -54 40 c-111 83 -285 158 -428 186 -91 17 -304 17 -392 -1z"/>
<path d="M2380 1550 l0 -634 25 34 c69 94 146 276 171 408 30 155 14 373 -36
522 -26 75 -99 221 -135 270 l-25 34 0 -634z"/>
<path d="M1411 2084 c-180 -48 -349 -219 -395 -400 -35 -134 -12 -298 55 -410
185 -306 585 -373 838 -138 123 113 181 244 181 406 0 170 -43 273 -164 393
-88 87 -150 126 -241 150 -73 19 -202 18 -274 -1z"/>
</g>
</svg>
